<svg width="27" height="27" viewBox="0 0 27 27" fill="none" xmlns="http://www.w3.org/2000/svg">
<path d="M24.75 10.125V7.875H23.625V5.625H22.5V4.5H21.375V3.375H19.125V2.25H16.875V1.125H10.125V2.25H7.875V3.375H5.625V4.5H4.5V5.625H3.375V7.875H2.25V10.125H1.125V16.875H2.25V19.125H3.375V21.375H4.5V22.5H5.625V23.625H7.875V24.75H10.125V25.875H16.875V24.75H19.125V23.625H21.375V22.5H22.5V21.375H23.625V19.125H24.75V16.875H25.875V10.125H24.75ZM23.625 16.875H22.5V19.125H21.375V21.375H19.125V22.5H16.875V23.625H10.125V22.5H7.875V21.375H5.625V19.125H4.5V16.875H3.375V10.125H4.5V7.875H5.625V5.625H7.875V4.5H10.125V3.375H16.875V4.5H19.125V5.625H21.375V7.875H22.5V10.125H23.625V16.875Z" fill="#707070"/>
<path d="M18 16.875V18H16.875V19.125H15.75V18H14.625V16.875H13.5V15.75H12.375V5.625H14.625V14.625H15.75V15.75H16.875V16.875H18Z" fill="#707070"/>
</svg>
