<svg width="32" height="32" viewBox="0 0 32 32" fill="none" xmlns="http://www.w3.org/2000/svg">
<path d="M29.3335 12V9.33333H28.0002V6.66666H26.6668V5.33333H25.3335V3.99999H22.6668V2.66666H20.0002V1.33333H12.0002V2.66666H9.3335V3.99999H6.66683V5.33333H5.3335V6.66666H4.00016V9.33333H2.66683V12H1.3335V20H2.66683V22.6667H4.00016V25.3333H5.3335V26.6667H6.66683V28H9.3335V29.3333H12.0002V30.6667H20.0002V29.3333H22.6668V28H25.3335V26.6667H26.6668V25.3333H28.0002V22.6667H29.3335V20H30.6668V12H29.3335ZM28.0002 20H26.6668V22.6667H25.3335V25.3333H22.6668V26.6667H20.0002V28H12.0002V26.6667H9.3335V25.3333H6.66683V22.6667H5.3335V20H4.00016V12H5.3335V9.33333H6.66683V6.66666H9.3335V5.33333H12.0002V3.99999H20.0002V5.33333H22.6668V6.66666H25.3335V9.33333H26.6668V12H28.0002V20Z" fill="black"/>
<path d="M21.3332 20V21.3333H19.9998V22.6667H18.6665V21.3333H17.3332V20H15.9998V18.6667H14.6665V6.66667H17.3332V17.3333H18.6665V18.6667H19.9998V20H21.3332Z" fill="black"/>
</svg>
