<svg width="32" height="32" viewBox="0 0 32 32" fill="none" xmlns="http://www.w3.org/2000/svg">
<path d="M29.3334 12V9.33334H28V6.66668H26.6667V5.33334H25.3334V4.00001H22.6667V2.66668H20V1.33334H12V2.66668H9.33337V4.00001H6.66671V5.33334H5.33337V6.66668H4.00004V9.33334H2.66671V12H1.33337V20H2.66671V22.6667H4.00004V25.3333H5.33337V26.6667H6.66671V28H9.33337V29.3333H12V30.6667H20V29.3333H22.6667V28H25.3334V26.6667H26.6667V25.3333H28V22.6667H29.3334V20H30.6667V12H29.3334ZM28 20H26.6667V22.6667H25.3334V25.3333H22.6667V26.6667H20V28H12V26.6667H9.33337V25.3333H6.66671V22.6667H5.33337V20H4.00004V12H5.33337V9.33334H6.66671V6.66668H9.33337V5.33334H12V4.00001H20V5.33334H22.6667V6.66668H25.3334V9.33334H26.6667V12H28V20Z" fill="white"/>
<path d="M21.3333 20V21.3333H20V22.6667H18.6666V21.3333H17.3333V20H16V18.6667H14.6666V6.66666H17.3333V17.3333H18.6666V18.6667H20V20H21.3333Z" fill="white"/>
</svg>
