<svg width="64" height="64" viewBox="0 0 64 64" fill="none" xmlns="http://www.w3.org/2000/svg">
<path d="M18.6666 18.6667V21.3333H16V24H13.3333V26.6667H10.6666V29.3333H7.99996V34.6667H10.6666V37.3333H13.3333V40H16V42.6667H18.6666V45.3333H13.3333V42.6667H10.6666V40H7.99996V37.3333H5.33329V34.6667H2.66663V29.3333H5.33329V26.6667H7.99996V24H10.6666V21.3333H13.3333V18.6667H18.6666Z" fill="white"/>
<path d="M40 8H42.6667V16H40V24H37.3333V32H34.6667V37.3333H32V45.3333H29.3333V53.3333H26.6667V56H24V48H26.6667V40H29.3333V32H32V26.6667H34.6667V18.6667H37.3333V10.6667H40V8Z" fill="white"/>
<path d="M61.3334 29.3333V34.6667H58.6667V37.3333H56V40H53.3334V42.6667H50.6667V45.3333H45.3334V42.6667H48V40H50.6667V37.3333H53.3334V34.6667H56V29.3333H53.3334V26.6667H50.6667V24H48V21.3333H45.3334V18.6667H50.6667V21.3333H53.3334V24H56V26.6667H58.6667V29.3333H61.3334Z" fill="white"/>
</svg>
