<svg width="24" height="24" viewBox="0 0 24 24" fill="none" xmlns="http://www.w3.org/2000/svg">
<path d="M19 10V12H18V13H16V12H15V10H16V9H18V10H19Z" fill="black"/>
<path d="M14 10V12H13V13H11V12H10V10H11V9H13V10H14Z" fill="black"/>
<path d="M9 10V12H8V13H6V12H5V10H6V9H8V10H9Z" fill="black"/>
<path d="M22 8V6H21V5H20V4H18V3H15V2H9V3H6V4H4V5H3V6H2V8H1V14H2V16H3V18H2V19H1V21H6V20H7V19H9V20H15V19H18V18H20V17H21V16H22V14H23V8H22ZM21 14H20V16H18V17H15V18H9V17H7V18H6V19H4V18H5V16H4V14H3V8H4V6H6V5H9V4H15V5H18V6H20V8H21V14Z" fill="black"/>
</svg>
