<svg width="32" height="32" viewBox="0 0 32 32" fill="none" xmlns="http://www.w3.org/2000/svg">
<path d="M7.99996 13.3333V16H6.66663V18.6666H5.33329V21.3333H3.99996V24H2.66663V28H3.99996V29.3333H24V28H25.3333V24H26.6666V21.3333H28V18.6666H29.3333V16H30.6666V13.3333H7.99996ZM26.6666 18.6666H25.3333V21.3333H24V24H22.6666V26.6666H5.33329V24H6.66663V21.3333H7.99996V18.6666H9.33329V16H26.6666V18.6666Z" fill="black"/>
<path d="M26.6667 6.66669V12H24V8.00002H12V6.66669H10.6667V5.33335H4.00004V18.6667H2.66671V21.3334H1.33337V4.00002H2.66671V2.66669H12V4.00002H13.3334V5.33335H25.3334V6.66669H26.6667Z" fill="black"/>
</svg>
