<svg width="64" height="64" viewBox="0 0 64 64" fill="none" xmlns="http://www.w3.org/2000/svg">
<path d="M16 26.6667V32H13.3334V37.3333H10.6667V42.6667H8.00004V48H5.33337V56H8.00004V58.6667H48V56H50.6667V48H53.3334V42.6667H56V37.3333H58.6667V32H61.3334V26.6667H16ZM53.3334 37.3333H50.6667V42.6667H48V48H45.3334V53.3333H10.6667V48H13.3334V42.6667H16V37.3333H18.6667V32H53.3334V37.3333Z" fill="white"/>
<path d="M53.3333 13.3333V24H48V16H24V13.3333H21.3333V10.6667H7.99996V37.3333H5.33329V42.6667H2.66663V8H5.33329V5.33334H24V8H26.6666V10.6667H50.6666V13.3333H53.3333Z" fill="white"/>
</svg>
