<svg width="32" height="32" viewBox="0 0 32 32" fill="none" xmlns="http://www.w3.org/2000/svg">
<path d="M9.3335 9.33333V10.6667H8.00016V12H6.66683V13.3333H5.3335V14.6667H4.00016V17.3333H5.3335V18.6667H6.66683V20H8.00016V21.3333H9.3335V22.6667H6.66683V21.3333H5.3335V20H4.00016V18.6667H2.66683V17.3333H1.3335V14.6667H2.66683V13.3333H4.00016V12H5.3335V10.6667H6.66683V9.33333H9.3335Z" fill="black"/>
<path d="M20 4H21.3333V8H20V12H18.6667V16H17.3333V18.6667H16V22.6667H14.6667V26.6667H13.3333V28H12V24H13.3333V20H14.6667V16H16V13.3333H17.3333V9.33333H18.6667V5.33333H20V4Z" fill="black"/>
<path d="M30.6665 14.6667V17.3333H29.3332V18.6667H27.9998V20H26.6665V21.3333H25.3332V22.6667H22.6665V21.3333H23.9998V20H25.3332V18.6667H26.6665V17.3333H27.9998V14.6667H26.6665V13.3333H25.3332V12H23.9998V10.6667H22.6665V9.33333H25.3332V10.6667H26.6665V12H27.9998V13.3333H29.3332V14.6667H30.6665Z" fill="black"/>
</svg>
