<svg width="22" height="22" viewBox="0 0 22 22" fill="none" xmlns="http://www.w3.org/2000/svg">
<g clip-path="url(#clip0_72_98)">
<path d="M13.75 12.8333V16.5H12.8333V17.4167H9.16667V16.5H8.25V12.8333H9.16667V11.9167H12.8333V12.8333H13.75Z" fill="white"/>
<path d="M20.1667 6.41666V5.5H19.2501V4.58333H18.3334V3.66666H17.4167V2.75H16.5001V1.83333H15.5834V0.916664H1.83341V1.83333H0.916748V20.1667H1.83341V21.0833H20.1667V20.1667H21.0834V6.41666H20.1667ZM13.7501 9.16666V2.75H14.6667V3.66666H15.5834V4.58333H16.5001V5.5H17.4167V6.41666H18.3334V7.33333H19.2501V19.25H2.75008V2.75H3.66675V9.16666H13.7501ZM5.50008 2.75H11.9167V7.33333H5.50008V2.75Z" fill="white"/>
</g>
<defs>
<clipPath id="clip0_72_98">
<rect width="22" height="22" fill="white"/>
</clipPath>
</defs>
</svg>
