<svg width="32" height="32" viewBox="0 0 32 32" fill="none" xmlns="http://www.w3.org/2000/svg">
<path d="M10.6667 6.66668V9.33334H9.33337V10.6667H6.66671V9.33334H5.33337V6.66668H6.66671V5.33334H9.33337V6.66668H10.6667Z" fill="black"/>
<path d="M29.3334 17.3333V16H28V14.6667H26.6667V13.3333H25.3334V12H24V10.6667H22.6667V9.33334H21.3334V8.00001H20V6.66668H18.6667V5.33334H17.3334V4.00001H16V2.66668H14.6667V1.33334H2.66671V2.66668H1.33337V14.6667H2.66671V16H4.00004V17.3333H5.33337V18.6667H6.66671V20H8.00004V21.3333H9.33337V22.6667H10.6667V24H12V25.3333H13.3334V26.6667H14.6667V28H16V29.3333H17.3334V30.6667H20V29.3333H21.3334V28H22.6667V26.6667H24V25.3333H25.3334V24H26.6667V22.6667H28V21.3333H29.3334V20H30.6667V17.3333H29.3334ZM4.00004 4.00001H13.3334V5.33334H14.6667V6.66668H16V8.00001H17.3334V9.33334H18.6667V10.6667H20V12H21.3334V13.3333H22.6667V14.6667H24V16H25.3334V17.3333H26.6667V20H25.3334V21.3333H24V22.6667H22.6667V24H21.3334V25.3333H20V26.6667H17.3334V25.3333H16V24H14.6667V22.6667H13.3334V21.3333H12V20H10.6667V18.6667H9.33337V17.3333H8.00004V16H6.66671V14.6667H5.33337V13.3333H4.00004V4.00001Z" fill="black"/>
</svg>
