<svg width="32" height="32" viewBox="0 0 32 32" fill="none" xmlns="http://www.w3.org/2000/svg">
<path d="M10.6668 6.66665V9.33331H9.3335V10.6666H6.66683V9.33331H5.3335V6.66665H6.66683V5.33331H9.3335V6.66665H10.6668Z" fill="#707070"/>
<path d="M29.3335 17.3333V16H28.0002V14.6666H26.6668V13.3333H25.3335V12H24.0002V10.6666H22.6668V9.33331H21.3335V7.99998H20.0002V6.66665H18.6668V5.33331H17.3335V3.99998H16.0002V2.66665H14.6668V1.33331H2.66683V2.66665H1.3335V14.6666H2.66683V16H4.00016V17.3333H5.3335V18.6666H6.66683V20H8.00016V21.3333H9.3335V22.6666H10.6668V24H12.0002V25.3333H13.3335V26.6666H14.6668V28H16.0002V29.3333H17.3335V30.6666H20.0002V29.3333H21.3335V28H22.6668V26.6666H24.0002V25.3333H25.3335V24H26.6668V22.6666H28.0002V21.3333H29.3335V20H30.6668V17.3333H29.3335ZM4.00016 3.99998H13.3335V5.33331H14.6668V6.66665H16.0002V7.99998H17.3335V9.33331H18.6668V10.6666H20.0002V12H21.3335V13.3333H22.6668V14.6666H24.0002V16H25.3335V17.3333H26.6668V20H25.3335V21.3333H24.0002V22.6666H22.6668V24H21.3335V25.3333H20.0002V26.6666H17.3335V25.3333H16.0002V24H14.6668V22.6666H13.3335V21.3333H12.0002V20H10.6668V18.6666H9.3335V17.3333H8.00016V16H6.66683V14.6666H5.3335V13.3333H4.00016V3.99998Z" fill="#707070"/>
</svg>
