<svg width="22" height="22" viewBox="0 0 22 22" fill="none" xmlns="http://www.w3.org/2000/svg">
<path d="M3.66675 9.16669V7.33335H4.58341V6.41669H5.50008V5.50002H6.41675V4.58335H7.33341V3.66669H8.25008V2.75002H9.16675V1.83335H10.0834V0.916687H11.9167V1.83335H12.8334V2.75002H13.7501V3.66669H14.6667V4.58335H15.5834V5.50002H16.5001V6.41669H17.4167V7.33335H18.3334V9.16669H16.5001V8.25002H15.5834V7.33335H14.6667V6.41669H13.7501V5.50002H12.8334V4.58335H11.9167V15.5834H10.0834V4.58335H9.16675V5.50002H8.25008V6.41669H7.33341V7.33335H6.41675V8.25002H5.50008V9.16669H3.66675Z" fill="black"/>
<path d="M20.1666 18.3333H1.83325V21.0833H20.1666V18.3333Z" fill="black"/>
</svg>
