<svg width="22" height="22" viewBox="0 0 22 22" fill="none" xmlns="http://www.w3.org/2000/svg">
<path d="M3.66675 9.16666V7.33333H4.58341V6.41666H5.50008V5.5H6.41675V4.58333H7.33341V3.66666H8.25008V2.75H9.16675V1.83333H10.0834V0.916664H11.9167V1.83333H12.8334V2.75H13.7501V3.66666H14.6667V4.58333H15.5834V5.5H16.5001V6.41666H17.4167V7.33333H18.3334V9.16666H16.5001V8.25H15.5834V7.33333H14.6667V6.41666H13.7501V5.5H12.8334V4.58333H11.9167V15.5833H10.0834V4.58333H9.16675V5.5H8.25008V6.41666H7.33341V7.33333H6.41675V8.25H5.50008V9.16666H3.66675Z" fill="white"/>
<path d="M20.1666 18.3333H1.83325V21.0833H20.1666V18.3333Z" fill="white"/>
</svg>
